<svg width="24" height="24" viewBox="0 0 24 24" fill="none" xmlns="http://www.w3.org/2000/svg">
  <path d="M12 2C6.48 2 2 6.48 2 12s4.48 10 10 10 10-4.48 10-10S17.52 2 12 2z" fill="#0078D4"/>
  <path d="M12 4C7.58 4 4 7.58 4 12s3.58 8 8 8 8-3.58 8-8-3.58-8-8-8z" fill="white"/>
  <path d="M12 6C8.69 6 6 8.69 6 12s2.69 6 6 6 6-2.69 6-6-2.69-6-6-6z" fill="#0078D4"/>
  <path d="M12 8C9.79 8 8 9.79 8 12s1.79 4 4 4 4-1.79 4-4-1.79-4-4-4z" fill="white"/>
  <path d="M12 10C10.9 10 10 10.9 10 12s0.9 2 2 2 2-0.9 2-2-0.9-2-2-2z" fill="#0078D4"/>
</svg>
